{
  "cells": [
    {
      "cell_type": "code",
      "execution_count": null,
      "metadata": {
        "id": "YhFe3CJGAIiV"
      },
      "outputs": [],
      "source": [
        "# !git clone https://github.com/ajay-sainy/Wav2Lip-GFPGAN.git\n",
        "# basePath = \"/content/Wav2Lip-GFPGAN\"\n",
        "# %cd {basePath}"
      ]
    },
    {
      "cell_type": "code",
      "execution_count": 62,
      "metadata": {
        "id": "mH7A_OaFUs8U"
      },
      "outputs": [],
      "source": [
        "import os\n",
        "basePath = os.getcwd()+'/Wav2Lip'\n",
        "wav2lipFolderName = 'Wav2Lip-master'\n",
        "gfpganFolderName = 'GFPGAN-master'\n",
        "wav2lipPath = wav2lipFolderName\n",
        "gfpganPath = gfpganFolderName\n",
        "\n",
        "# No need to Run; Models already downloaded\n",
        "# !wget 'https://www.adrianbulat.com/downloads/python-fan/s3fd-619a316812.pth' -O {wav2lipPath}'/face_detection/detection/sfd/s3fd.pth'\n",
        "# !gdown https://drive.google.com/uc?id=1fQtBSYEyuai9MjBOF8j7zZ4oQ9W2N64q --output {wav2lipPath}'/checkpoints/'"
      ]
    },
    {
      "cell_type": "code",
      "execution_count": null,
      "metadata": {
        "id": "CAJqWQS17Qk1"
      },
      "outputs": [],
      "source": [
        "!pip install -r requirements.txt"
      ]
    },
    {
      "cell_type": "code",
      "execution_count": 64,
      "metadata": {},
      "outputs": [
        {
          "name": "stdout",
          "output_type": "stream",
          "text": [
            "\u001b[34mOutput\u001b[m\u001b[m             \u001b[34mRAG_Stripped\u001b[m\u001b[m       \u001b[34mWav2Lip\u001b[m\u001b[m            \u001b[34mtemp\u001b[m\u001b[m\n",
            "\u001b[34mRAG\u001b[m\u001b[m                VideoChatbot.ipynb \u001b[34moutputs\u001b[m\u001b[m            test.ipynb\n"
          ]
        }
      ],
      "source": [
        "import os\n",
        "basePath = os.getcwd()+\"/Wav2Lip\"\n",
        "!ls"
      ]
    },
    {
      "cell_type": "code",
      "execution_count": 87,
      "metadata": {
        "id": "EqX_2YtkUjRI"
      },
      "outputs": [
        {
          "name": "stdout",
          "output_type": "stream",
          "text": [
            "Using mps for inference.\n",
            "Reading video frames...\n",
            "Number of frames available for inference: 332\n",
            "Extracting raw audio...\n",
            "ffmpeg version 6.0 Copyright (c) 2000-2023 the FFmpeg developers\n",
            "  built with Apple clang version 15.0.0 (clang-1500.0.40.1)\n",
            "  configuration: --prefix=/opt/homebrew/Cellar/ffmpeg/6.0_1 --enable-shared --enable-pthreads --enable-version3 --cc=clang --host-cflags= --host-ldflags='-Wl,-ld_classic' --enable-ffplay --enable-gnutls --enable-gpl --enable-libaom --enable-libaribb24 --enable-libbluray --enable-libdav1d --enable-libjxl --enable-libmp3lame --enable-libopus --enable-librav1e --enable-librist --enable-librubberband --enable-libsnappy --enable-libsrt --enable-libsvtav1 --enable-libtesseract --enable-libtheora --enable-libvidstab --enable-libvmaf --enable-libvorbis --enable-libvpx --enable-libwebp --enable-libx264 --enable-libx265 --enable-libxml2 --enable-libxvid --enable-lzma --enable-libfontconfig --enable-libfreetype --enable-frei0r --enable-libass --enable-libopencore-amrnb --enable-libopencore-amrwb --enable-libopenjpeg --enable-libspeex --enable-libsoxr --enable-libzmq --enable-libzimg --disable-libjack --disable-indev=jack --enable-videotoolbox --enable-audiotoolbox --enable-neon\n",
            "  libavutil      58.  2.100 / 58.  2.100\n",
            "  libavcodec     60.  3.100 / 60.  3.100\n",
            "  libavformat    60.  3.100 / 60.  3.100\n",
            "  libavdevice    60.  1.100 / 60.  1.100\n",
            "  libavfilter     9.  3.100 /  9.  3.100\n",
            "  libswscale      7.  1.100 /  7.  1.100\n",
            "  libswresample   4. 10.100 /  4. 10.100\n",
            "  libpostproc    57.  1.100 / 57.  1.100\n",
            "Input #0, mp3, from '/Users/shawn/Documents/FinalYr_Proj/VideoChatbot_Stripped/Wav2Lip/inputs/kim_audio.mp3':\n",
            "  Metadata:\n",
            "    comment         : audio-extractor.net\n",
            "  Duration: 00:00:07.44, start: 0.025057, bitrate: 132 kb/s\n",
            "  Stream #0:0: Audio: mp3, 44100 Hz, stereo, fltp, 128 kb/s\n",
            "    Metadata:\n",
            "      encoder         : Lavc59.18\n",
            "Stream mapping:\n",
            "  Stream #0:0 -> #0:0 (mp3 (mp3float) -> pcm_s16le (native))\n",
            "Press [q] to stop, [?] for help\n",
            "Output #0, wav, to 'temp/temp.wav':\n",
            "  Metadata:\n",
            "    ICMT            : audio-extractor.net\n",
            "    ISFT            : Lavf60.3.100\n",
            "  Stream #0:0: Audio: pcm_s16le ([1][0][0][0] / 0x0001), 44100 Hz, stereo, s16, 1411 kb/s\n",
            "    Metadata:\n",
            "      encoder         : Lavc60.3.100 pcm_s16le\n",
            "size=    1276kB time=00:00:07.39 bitrate=1413.9kbits/s speed= 646x    \n",
            "video:0kB audio:1276kB subtitle:0kB other streams:0kB global headers:0kB muxing overhead: 0.008113%\n",
            "mel-shape:  (80, 593)\n",
            "Length of mel chunks: 183\n",
            "  0%|                                                     | 0/2 [00:00<?, ?it/s]\n",
            "  0%|                                                    | 0/12 [00:00<?, ?it/s]\u001b[A\n",
            "  8%|███▋                                        | 1/12 [00:01<00:20,  1.85s/it]\u001b[A\n",
            " 17%|███████▎                                    | 2/12 [00:03<00:18,  1.80s/it]\u001b[A\n",
            " 25%|███████████                                 | 3/12 [00:05<00:15,  1.75s/it]\u001b[A\n",
            " 33%|██████████████▋                             | 4/12 [00:06<00:13,  1.72s/it]\u001b[A\n",
            " 42%|██████████████████▎                         | 5/12 [00:08<00:11,  1.70s/it]\u001b[A\n",
            " 50%|██████████████████████                      | 6/12 [00:10<00:10,  1.69s/it]\u001b[A\n",
            " 58%|█████████████████████████▋                  | 7/12 [00:11<00:08,  1.66s/it]\u001b[A\n",
            " 67%|█████████████████████████████▎              | 8/12 [00:13<00:06,  1.64s/it]\u001b[A\n",
            " 75%|█████████████████████████████████           | 9/12 [00:14<00:04,  1.63s/it]\u001b[A\n",
            " 83%|███████████████████████████████████▊       | 10/12 [00:16<00:03,  1.63s/it]\u001b[A\n",
            " 92%|███████████████████████████████████████▍   | 11/12 [00:18<00:01,  1.66s/it]\u001b[A\n",
            "100%|███████████████████████████████████████████| 12/12 [00:18<00:00,  1.58s/it]\u001b[A\n",
            "Load checkpoint from: Wav2Lip/Wav2Lip-master/checkpoints/wav2lip.pth\n",
            "Model loaded\n",
            "100%|█████████████████████████████████████████████| 2/2 [00:21<00:00, 10.89s/it]\n",
            "ffmpeg version 6.0 Copyright (c) 2000-2023 the FFmpeg developers\n",
            "  built with Apple clang version 15.0.0 (clang-1500.0.40.1)\n",
            "  configuration: --prefix=/opt/homebrew/Cellar/ffmpeg/6.0_1 --enable-shared --enable-pthreads --enable-version3 --cc=clang --host-cflags= --host-ldflags='-Wl,-ld_classic' --enable-ffplay --enable-gnutls --enable-gpl --enable-libaom --enable-libaribb24 --enable-libbluray --enable-libdav1d --enable-libjxl --enable-libmp3lame --enable-libopus --enable-librav1e --enable-librist --enable-librubberband --enable-libsnappy --enable-libsrt --enable-libsvtav1 --enable-libtesseract --enable-libtheora --enable-libvidstab --enable-libvmaf --enable-libvorbis --enable-libvpx --enable-libwebp --enable-libx264 --enable-libx265 --enable-libxml2 --enable-libxvid --enable-lzma --enable-libfontconfig --enable-libfreetype --enable-frei0r --enable-libass --enable-libopencore-amrnb --enable-libopencore-amrwb --enable-libopenjpeg --enable-libspeex --enable-libsoxr --enable-libzmq --enable-libzimg --disable-libjack --disable-indev=jack --enable-videotoolbox --enable-audiotoolbox --enable-neon\n",
            "  libavutil      58.  2.100 / 58.  2.100\n",
            "  libavcodec     60.  3.100 / 60.  3.100\n",
            "  libavformat    60.  3.100 / 60.  3.100\n",
            "  libavdevice    60.  1.100 / 60.  1.100\n",
            "  libavfilter     9.  3.100 /  9.  3.100\n",
            "  libswscale      7.  1.100 /  7.  1.100\n",
            "  libswresample   4. 10.100 /  4. 10.100\n",
            "  libpostproc    57.  1.100 / 57.  1.100\n",
            "\u001b[0;33mGuessed Channel Layout for Input Stream #0.0 : stereo\n",
            "\u001b[0mInput #0, wav, from 'temp/temp.wav':\n",
            "  Metadata:\n",
            "    comment         : audio-extractor.net\n",
            "    encoder         : Lavf60.3.100\n",
            "  Duration: 00:00:07.41, bitrate: 1411 kb/s\n",
            "  Stream #0:0: Audio: pcm_s16le ([1][0][0][0] / 0x0001), 44100 Hz, 2 channels, s16, 1411 kb/s\n",
            "Input #1, mov,mp4,m4a,3gp,3g2,mj2, from 'temp/result.mp4':\n",
            "  Metadata:\n",
            "    major_brand     : isom\n",
            "    minor_version   : 512\n",
            "    compatible_brands: isomiso2mp41\n",
            "    encoder         : Lavf60.3.100\n",
            "  Duration: 00:00:07.30, start: 0.000000, bitrate: 7309 kb/s\n",
            "  Stream #1:0[0x1](und): Video: mpeg4 (Simple Profile) (mp4v / 0x7634706D), yuv420p, 540x960 [SAR 1:1 DAR 9:16], 7307 kb/s, 25.06 fps, 25.06 tbr, 10024 tbn (default)\n",
            "    Metadata:\n",
            "      handler_name    : VideoHandler\n",
            "      vendor_id       : [0][0][0][0]\n",
            "Stream mapping:\n",
            "  Stream #1:0 -> #0:0 (mpeg4 (native) -> h264 (libx264))\n",
            "  Stream #0:0 -> #0:1 (pcm_s16le (native) -> aac (native))\n",
            "Press [q] to stop, [?] for help\n",
            "\u001b[1;36m[libx264 @ 0x14cf31940] \u001b[0m\u001b[0;33m-qscale is ignored, -crf is recommended.\n",
            "\u001b[0m\u001b[1;36m[libx264 @ 0x14cf31940] \u001b[0musing SAR=1/1\n",
            "\u001b[1;36m[libx264 @ 0x14cf31940] \u001b[0musing cpu capabilities: ARMv8 NEON\n",
            "\u001b[1;36m[libx264 @ 0x14cf31940] \u001b[0mprofile High, level 3.1, 4:2:0, 8-bit\n",
            "\u001b[1;36m[libx264 @ 0x14cf31940] \u001b[0m264 - core 164 r3108 31e19f9 - H.264/MPEG-4 AVC codec - Copyleft 2003-2023 - http://www.videolan.org/x264.html - options: cabac=1 ref=3 deblock=1:0:0 analyse=0x3:0x113 me=hex subme=7 psy=1 psy_rd=1.00:0.00 mixed_ref=1 me_range=16 chroma_me=1 trellis=1 8x8dct=1 cqm=0 deadzone=21,11 fast_pskip=1 chroma_qp_offset=-2 threads=12 lookahead_threads=2 sliced_threads=0 nr=0 decimate=1 interlaced=0 bluray_compat=0 constrained_intra=0 bframes=3 b_pyramid=2 b_adapt=1 b_bias=0 direct=1 weightb=1 open_gop=0 weightp=2 keyint=250 keyint_min=25 scenecut=40 intra_refresh=0 rc_lookahead=40 rc=crf mbtree=1 crf=23.0 qcomp=0.60 qpmin=0 qpmax=69 qpstep=4 ip_ratio=1.40 aq=1:1.00\n",
            "Output #0, mp4, to 'Output/test/video/result_test.mp4':\n",
            "  Metadata:\n",
            "    comment         : audio-extractor.net\n",
            "    encoder         : Lavf60.3.100\n",
            "  Stream #0:0(und): Video: h264 (avc1 / 0x31637661), yuv420p(progressive), 540x960 [SAR 1:1 DAR 9:16], q=2-31, 25.06 fps, 10024 tbn (default)\n",
            "    Metadata:\n",
            "      handler_name    : VideoHandler\n",
            "      vendor_id       : [0][0][0][0]\n",
            "      encoder         : Lavc60.3.100 libx264\n",
            "    Side data:\n",
            "      cpb: bitrate max/min/avg: 0/0/0 buffer size: 0 vbv_delay: N/A\n",
            "  Stream #0:1: Audio: aac (LC) (mp4a / 0x6134706D), 44100 Hz, stereo, fltp, 128 kb/s\n",
            "    Metadata:\n",
            "      encoder         : Lavc60.3.100 aac\n",
            "frame=  183 fps=0.0 q=-1.0 Lsize=    1759kB time=00:00:07.38 bitrate=1951.2kbits/s speed=9.46x     \n",
            "video:1636kB audio:115kB subtitle:0kB other streams:0kB global headers:0kB muxing overhead: 0.416564%\n",
            "\u001b[1;36m[libx264 @ 0x14cf31940] \u001b[0mframe I:1     Avg QP:21.62  size: 48593\n",
            "\u001b[1;36m[libx264 @ 0x14cf31940] \u001b[0mframe P:67    Avg QP:23.88  size: 19030\n",
            "\u001b[1;36m[libx264 @ 0x14cf31940] \u001b[0mframe B:115   Avg QP:28.31  size:  3056\n",
            "\u001b[1;36m[libx264 @ 0x14cf31940] \u001b[0mconsecutive B-frames: 15.3%  2.2%  1.6% 80.9%\n",
            "\u001b[1;36m[libx264 @ 0x14cf31940] \u001b[0mmb I  I16..4: 32.0% 61.4%  6.7%\n",
            "\u001b[1;36m[libx264 @ 0x14cf31940] \u001b[0mmb P  I16..4:  2.5%  8.6%  0.8%  P16..4: 36.7% 19.7% 14.0%  0.0%  0.0%    skip:17.8%\n",
            "\u001b[1;36m[libx264 @ 0x14cf31940] \u001b[0mmb B  I16..4:  0.3%  1.1%  0.1%  B16..8: 37.7%  8.8%  2.5%  direct: 1.8%  skip:47.8%  L0:45.7% L1:38.7% BI:15.6%\n",
            "\u001b[1;36m[libx264 @ 0x14cf31940] \u001b[0m8x8 transform intra:72.0% inter:67.5%\n",
            "\u001b[1;36m[libx264 @ 0x14cf31940] \u001b[0mcoded y,uvDC,uvAC intra: 49.5% 61.7% 9.2% inter: 18.7% 13.9% 0.1%\n",
            "\u001b[1;36m[libx264 @ 0x14cf31940] \u001b[0mi16 v,h,dc,p: 51% 13% 24% 12%\n",
            "\u001b[1;36m[libx264 @ 0x14cf31940] \u001b[0mi8 v,h,dc,ddl,ddr,vr,hd,vl,hu: 30% 13% 38%  3%  4%  3%  4%  2%  3%\n",
            "\u001b[1;36m[libx264 @ 0x14cf31940] \u001b[0mi4 v,h,dc,ddl,ddr,vr,hd,vl,hu: 22% 19% 12%  2% 18%  8% 11%  3%  5%\n",
            "\u001b[1;36m[libx264 @ 0x14cf31940] \u001b[0mi8c dc,h,v,p: 43% 19% 33%  5%\n",
            "\u001b[1;36m[libx264 @ 0x14cf31940] \u001b[0mWeighted P-Frames: Y:11.9% UV:0.0%\n",
            "\u001b[1;36m[libx264 @ 0x14cf31940] \u001b[0mref P L0: 58.0% 14.8% 20.9%  5.8%  0.5%\n",
            "\u001b[1;36m[libx264 @ 0x14cf31940] \u001b[0mref B L0: 89.7%  8.3%  2.0%\n",
            "\u001b[1;36m[libx264 @ 0x14cf31940] \u001b[0mref B L1: 96.9%  3.1%\n",
            "\u001b[1;36m[libx264 @ 0x14cf31940] \u001b[0mkb/s:1835.02\n",
            "\u001b[1;36m[aac @ 0x14cf32c20] \u001b[0mQavg: 751.628\n"
          ]
        }
      ],
      "source": [
        "import os\n",
        "basePath = os.getcwd()+'/Wav2Lip'\n",
        "outputPath = 'Output/test'\n",
        "inputAudioPath = basePath + '/inputs/kim_audio.mp3'\n",
        "inputVideoPath = basePath + '/inputs/Palki.mp4'\n",
        "lipSyncedOutputPath = 'Output/test/video/result_test.mp4'\n",
        "\n",
        "if not os.path.exists(outputPath):\n",
        "  os.makedirs(outputPath)\n",
        "\n",
        "#!cd $basePath && cd $wav2lipFolderName \n",
        "!python Wav2Lip/Wav2Lip-master/inference.py \\\n",
        "--checkpoint_path Wav2Lip/Wav2Lip-master/checkpoints/wav2lip.pth \\\n",
        "--face {inputVideoPath} \\\n",
        "--audio {inputAudioPath} \\\n",
        "--outfile {lipSyncedOutputPath}"
      ]
    },
    {
      "cell_type": "code",
      "execution_count": null,
      "metadata": {
        "id": "PPBew5FGGvP9"
      },
      "outputs": [],
      "source": [
        "#Download GFPGAN already downloaded\n",
        "# !cd $gfpganFolderName && python setup.py develop\n",
        "# !wget https://github.com/TencentARC/GFPGAN/releases/download/v1.3.0/GFPGANv1.3.pth -P {gfpganFolderName}'/experiments/pretrained_models'"
      ]
    },
    {
      "cell_type": "code",
      "execution_count": 115,
      "metadata": {
        "id": "X_RNegAcISU2"
      },
      "outputs": [
        {
          "name": "stderr",
          "output_type": "stream",
          "text": [
            "  0%|          | 0/337 [00:00<?, ?it/s]"
          ]
        },
        {
          "name": "stderr",
          "output_type": "stream",
          "text": [
            "  7%|▋         | 23/337 [00:00<00:01, 221.87it/s]"
          ]
        },
        {
          "name": "stdout",
          "output_type": "stream",
          "text": [
            "FPS:  25.05956293742694 Frames:  337\n"
          ]
        },
        {
          "name": "stderr",
          "output_type": "stream",
          "text": [
            " 99%|█████████▊| 332/337 [00:01<00:00, 209.02it/s]\n"
          ]
        },
        {
          "ename": "error",
          "evalue": "OpenCV(4.9.0) /Users/xperience/GHA-OpenCV-Python2/_work/opencv-python/opencv-python/opencv/modules/imgcodecs/src/loadsave.cpp:786: error: (-215:Assertion failed) !_img.empty() in function 'imwrite'\n",
          "output_type": "error",
          "traceback": [
            "\u001b[0;31m---------------------------------------------------------------------------\u001b[0m",
            "\u001b[0;31merror\u001b[0m                                     Traceback (most recent call last)",
            "Cell \u001b[0;32mIn[115], line 20\u001b[0m\n\u001b[1;32m     18\u001b[0m \u001b[38;5;28;01mfor\u001b[39;00m frameNumber \u001b[38;5;129;01min\u001b[39;00m tqdm(\u001b[38;5;28mrange\u001b[39m(numberOfFrames)):\n\u001b[1;32m     19\u001b[0m     _,image \u001b[38;5;241m=\u001b[39m vidcap\u001b[38;5;241m.\u001b[39mread()\n\u001b[0;32m---> 20\u001b[0m     \u001b[43mcv2\u001b[49m\u001b[38;5;241;43m.\u001b[39;49m\u001b[43mimwrite\u001b[49m\u001b[43m(\u001b[49m\u001b[43mpath\u001b[49m\u001b[38;5;241;43m.\u001b[39;49m\u001b[43mjoin\u001b[49m\u001b[43m(\u001b[49m\u001b[43munProcessedFramesFolderPath\u001b[49m\u001b[43m,\u001b[49m\u001b[43m \u001b[49m\u001b[38;5;28;43mstr\u001b[39;49m\u001b[43m(\u001b[49m\u001b[43mframeNumber\u001b[49m\u001b[43m)\u001b[49m\u001b[38;5;241;43m.\u001b[39;49m\u001b[43mzfill\u001b[49m\u001b[43m(\u001b[49m\u001b[38;5;241;43m4\u001b[39;49m\u001b[43m)\u001b[49m\u001b[38;5;241;43m+\u001b[39;49m\u001b[38;5;124;43m'\u001b[39;49m\u001b[38;5;124;43m.jpg\u001b[39;49m\u001b[38;5;124;43m'\u001b[39;49m\u001b[43m)\u001b[49m\u001b[43m,\u001b[49m\u001b[43m \u001b[49m\u001b[43mimage\u001b[49m\u001b[43m)\u001b[49m\n",
            "\u001b[0;31merror\u001b[0m: OpenCV(4.9.0) /Users/xperience/GHA-OpenCV-Python2/_work/opencv-python/opencv-python/opencv/modules/imgcodecs/src/loadsave.cpp:786: error: (-215:Assertion failed) !_img.empty() in function 'imwrite'\n"
          ]
        }
      ],
      "source": [
        "# Description: This script is used to generate frames from the lip-synced video\n",
        "import cv2\n",
        "from tqdm import tqdm\n",
        "from os import path\n",
        "\n",
        "import os\n",
        "outputPath = 'Output/test'\n",
        "inputVideoPath = outputPath+'/video/result_test.mp4'\n",
        "unProcessedFramesFolderPath = outputPath+'/frames'\n",
        "\n",
        "if not os.path.exists(unProcessedFramesFolderPath):\n",
        "  os.makedirs(unProcessedFramesFolderPath)\n",
        "\n",
        "vidcap = cv2.VideoCapture(inputVideoPath)\n",
        "numberOfFrames = int(vidcap.get(cv2.CAP_PROP_FRAME_COUNT))\n",
        "fps = vidcap.get(cv2.CAP_PROP_FPS)\n",
        "print(\"FPS: \", fps, \"Frames: \", numberOfFrames)\n",
        "\n",
        "for frameNumber in tqdm(range(numberOfFrames)):\n",
        "    _,image = vidcap.read()\n",
        "    cv2.imwrite(path.join(unProcessedFramesFolderPath, str(frameNumber).zfill(4)+'.jpg'), image)\n"
      ]
    },
    {
      "cell_type": "code",
      "execution_count": null,
      "metadata": {},
      "outputs": [],
      "source": [
        "# # This command is used to enhance the lipsync video frames using GFPGAN\n",
        "# video_enhance_cmd = [\"python\",\n",
        "#                      \"Wav2Lip/GFPGAN-master/inference_gfpgan.py\", \n",
        "#                      \"-i\", unProcessedFramesFolderPath,\n",
        "#                      \"-o\", outputPath \n",
        "#                      \"-v\", 1.3 \"-s\" 2 ,\n",
        "#                      \"--only_center_face\", \"--bg_upsampler\", None\n",
        "#                      ]\n",
        "\n",
        "# import subprocess\n",
        "# subprocess.run(video_enhance_cmd)"
      ]
    },
    {
      "cell_type": "code",
      "execution_count": 109,
      "metadata": {
        "id": "k6krjfxTJYlu"
      },
      "outputs": [
        {
          "name": "stdout",
          "output_type": "stream",
          "text": [
            "/Users/shawn/anaconda3/envs/llamalocal3/lib/python3.10/site-packages/torchvision/models/_utils.py:208: UserWarning: The parameter 'pretrained' is deprecated since 0.13 and may be removed in the future, please use 'weights' instead.\n",
            "  warnings.warn(\n",
            "/Users/shawn/anaconda3/envs/llamalocal3/lib/python3.10/site-packages/torchvision/models/_utils.py:223: UserWarning: Arguments other than a weight enum or `None` for 'weights' are deprecated since 0.13 and may be removed in the future. The current behavior is equivalent to passing `weights=None`.\n",
            "  warnings.warn(msg)\n",
            "  0%|                                                   | 0/183 [00:00<?, ?it/s]Processing 0000.jpg ...\n",
            "  1%|▏                                          | 1/183 [00:01<05:52,  1.94s/it]Processing 0001.jpg ...\n",
            "  1%|▍                                          | 2/183 [00:02<04:36,  1.53s/it]Processing 0002.jpg ...\n",
            "  2%|▋                                          | 3/183 [00:03<03:44,  1.25s/it]Processing 0003.jpg ...\n",
            "  2%|▉                                          | 4/183 [00:03<03:07,  1.05s/it]Processing 0004.jpg ...\n",
            "  3%|█▏                                         | 5/183 [00:04<02:41,  1.10it/s]Processing 0005.jpg ...\n",
            "  3%|█▍                                         | 6/183 [00:04<02:23,  1.23it/s]Processing 0006.jpg ...\n",
            "  4%|█▋                                         | 7/183 [00:05<02:11,  1.34it/s]Processing 0007.jpg ...\n",
            "  4%|█▉                                         | 8/183 [00:06<02:01,  1.44it/s]Processing 0008.jpg ...\n",
            "  5%|██                                         | 9/183 [00:06<01:56,  1.50it/s]Processing 0009.jpg ...\n",
            "  5%|██▎                                       | 10/183 [00:07<01:50,  1.56it/s]Processing 0010.jpg ...\n",
            "  6%|██▌                                       | 11/183 [00:07<01:46,  1.61it/s]Processing 0011.jpg ...\n",
            "  7%|██▊                                       | 12/183 [00:08<01:44,  1.64it/s]Processing 0012.jpg ...\n",
            "  7%|██▉                                       | 13/183 [00:08<01:41,  1.67it/s]Processing 0013.jpg ...\n",
            "  8%|███▏                                      | 14/183 [00:09<01:41,  1.67it/s]Processing 0014.jpg ...\n",
            "  8%|███▍                                      | 15/183 [00:10<01:41,  1.66it/s]Processing 0015.jpg ...\n",
            "  9%|███▋                                      | 16/183 [00:10<01:38,  1.69it/s]Processing 0016.jpg ...\n",
            "  9%|███▉                                      | 17/183 [00:11<01:39,  1.66it/s]Processing 0017.jpg ...\n",
            " 10%|████▏                                     | 18/183 [00:11<01:38,  1.67it/s]Processing 0018.jpg ...\n",
            " 10%|████▎                                     | 19/183 [00:12<01:36,  1.70it/s]Processing 0019.jpg ...\n",
            " 11%|████▌                                     | 20/183 [00:13<01:36,  1.68it/s]Processing 0020.jpg ...\n",
            " 11%|████▊                                     | 21/183 [00:13<01:35,  1.70it/s]Processing 0021.jpg ...\n",
            " 12%|█████                                     | 22/183 [00:14<01:38,  1.63it/s]Processing 0022.jpg ...\n",
            " 13%|█████▎                                    | 23/183 [00:14<01:39,  1.61it/s]Processing 0023.jpg ...\n",
            " 13%|█████▌                                    | 24/183 [00:15<01:40,  1.58it/s]Processing 0024.jpg ...\n",
            " 14%|█████▋                                    | 25/183 [00:16<01:37,  1.63it/s]Processing 0025.jpg ...\n",
            " 14%|█████▉                                    | 26/183 [00:16<01:36,  1.63it/s]Processing 0026.jpg ...\n",
            " 15%|██████▏                                   | 27/183 [00:17<01:35,  1.64it/s]Processing 0027.jpg ...\n",
            " 15%|██████▍                                   | 28/183 [00:18<01:34,  1.65it/s]Processing 0028.jpg ...\n",
            " 16%|██████▋                                   | 29/183 [00:18<01:32,  1.66it/s]Processing 0029.jpg ...\n",
            " 16%|██████▉                                   | 30/183 [00:19<01:31,  1.67it/s]Processing 0030.jpg ...\n",
            " 17%|███████                                   | 31/183 [00:19<01:30,  1.68it/s]Processing 0031.jpg ...\n",
            " 17%|███████▎                                  | 32/183 [00:20<01:29,  1.69it/s]Processing 0032.jpg ...\n",
            " 18%|███████▌                                  | 33/183 [00:21<01:32,  1.62it/s]Processing 0033.jpg ...\n",
            " 19%|███████▊                                  | 34/183 [00:21<01:31,  1.64it/s]Processing 0034.jpg ...\n",
            " 19%|████████                                  | 35/183 [00:22<01:28,  1.67it/s]Processing 0035.jpg ...\n",
            " 20%|████████▎                                 | 36/183 [00:22<01:28,  1.67it/s]Processing 0036.jpg ...\n",
            " 20%|████████▍                                 | 37/183 [00:23<01:28,  1.65it/s]Processing 0037.jpg ...\n",
            " 21%|████████▋                                 | 38/183 [00:24<01:29,  1.63it/s]Processing 0038.jpg ...\n",
            " 21%|████████▉                                 | 39/183 [00:24<01:27,  1.65it/s]Processing 0039.jpg ...\n",
            " 22%|█████████▏                                | 40/183 [00:25<01:24,  1.69it/s]Processing 0040.jpg ...\n",
            " 22%|█████████▍                                | 41/183 [00:25<01:23,  1.71it/s]Processing 0041.jpg ...\n",
            " 23%|█████████▋                                | 42/183 [00:26<01:22,  1.72it/s]Processing 0042.jpg ...\n",
            " 23%|█████████▊                                | 43/183 [00:26<01:22,  1.70it/s]Processing 0043.jpg ...\n",
            " 24%|██████████                                | 44/183 [00:27<01:22,  1.69it/s]Processing 0044.jpg ...\n",
            " 25%|██████████▎                               | 45/183 [00:28<01:21,  1.70it/s]Processing 0045.jpg ...\n",
            " 25%|██████████▌                               | 46/183 [00:28<01:19,  1.71it/s]Processing 0046.jpg ...\n",
            " 26%|██████████▊                               | 47/183 [00:29<01:19,  1.71it/s]Processing 0047.jpg ...\n",
            " 26%|███████████                               | 48/183 [00:29<01:19,  1.69it/s]Processing 0048.jpg ...\n",
            " 27%|███████████▏                              | 49/183 [00:30<01:19,  1.68it/s]Processing 0049.jpg ...\n",
            " 27%|███████████▍                              | 50/183 [00:31<01:19,  1.67it/s]Processing 0050.jpg ...\n",
            " 28%|███████████▋                              | 51/183 [00:31<01:19,  1.66it/s]Processing 0051.jpg ...\n",
            " 28%|███████████▉                              | 52/183 [00:32<01:17,  1.68it/s]Processing 0052.jpg ...\n",
            " 29%|████████████▏                             | 53/183 [00:32<01:17,  1.68it/s]Processing 0053.jpg ...\n",
            " 30%|████████████▍                             | 54/183 [00:33<01:16,  1.68it/s]Processing 0054.jpg ...\n",
            " 30%|████████████▌                             | 55/183 [00:34<01:15,  1.70it/s]Processing 0055.jpg ...\n",
            " 31%|████████████▊                             | 56/183 [00:34<01:15,  1.68it/s]Processing 0056.jpg ...\n",
            " 31%|█████████████                             | 57/183 [00:35<01:14,  1.70it/s]Processing 0057.jpg ...\n",
            " 32%|█████████████▎                            | 58/183 [00:35<01:14,  1.68it/s]Processing 0058.jpg ...\n",
            " 32%|█████████████▌                            | 59/183 [00:36<01:13,  1.68it/s]Processing 0059.jpg ...\n",
            " 33%|█████████████▊                            | 60/183 [00:37<01:14,  1.65it/s]Processing 0060.jpg ...\n",
            " 33%|██████████████                            | 61/183 [00:37<01:13,  1.65it/s]Processing 0061.jpg ...\n",
            " 34%|██████████████▏                           | 62/183 [00:38<01:12,  1.67it/s]Processing 0062.jpg ...\n",
            " 34%|██████████████▍                           | 63/183 [00:38<01:12,  1.66it/s]Processing 0063.jpg ...\n",
            " 35%|██████████████▋                           | 64/183 [00:39<01:11,  1.66it/s]Processing 0064.jpg ...\n",
            " 36%|██████████████▉                           | 65/183 [00:40<01:10,  1.67it/s]Processing 0065.jpg ...\n",
            " 36%|███████████████▏                          | 66/183 [00:40<01:09,  1.69it/s]Processing 0066.jpg ...\n",
            " 37%|███████████████▍                          | 67/183 [00:41<01:08,  1.69it/s]Processing 0067.jpg ...\n",
            " 37%|███████████████▌                          | 68/183 [00:41<01:08,  1.68it/s]Processing 0068.jpg ...\n",
            " 38%|███████████████▊                          | 69/183 [00:42<01:07,  1.70it/s]Processing 0069.jpg ...\n",
            " 38%|████████████████                          | 70/183 [00:43<01:08,  1.66it/s]Processing 0070.jpg ...\n",
            " 39%|████████████████▎                         | 71/183 [00:43<01:07,  1.66it/s]Processing 0071.jpg ...\n",
            " 39%|████████████████▌                         | 72/183 [00:44<01:06,  1.66it/s]Processing 0072.jpg ...\n",
            " 40%|████████████████▊                         | 73/183 [00:44<01:05,  1.67it/s]Processing 0073.jpg ...\n",
            " 40%|████████████████▉                         | 74/183 [00:45<01:04,  1.70it/s]Processing 0074.jpg ...\n",
            " 41%|█████████████████▏                        | 75/183 [00:46<01:03,  1.71it/s]Processing 0075.jpg ...\n",
            " 42%|█████████████████▍                        | 76/183 [00:46<01:01,  1.74it/s]Processing 0076.jpg ...\n",
            " 42%|█████████████████▋                        | 77/183 [00:47<01:00,  1.75it/s]Processing 0077.jpg ...\n",
            " 43%|█████████████████▉                        | 78/183 [00:47<00:59,  1.76it/s]Processing 0078.jpg ...\n",
            " 43%|██████████████████▏                       | 79/183 [00:48<00:59,  1.76it/s]Processing 0079.jpg ...\n",
            " 44%|██████████████████▎                       | 80/183 [00:48<00:58,  1.76it/s]Processing 0080.jpg ...\n",
            " 44%|██████████████████▌                       | 81/183 [00:49<00:57,  1.78it/s]Processing 0081.jpg ...\n",
            " 45%|██████████████████▊                       | 82/183 [00:49<00:57,  1.76it/s]Processing 0082.jpg ...\n",
            " 45%|███████████████████                       | 83/183 [00:50<00:57,  1.73it/s]Processing 0083.jpg ...\n",
            " 46%|███████████████████▎                      | 84/183 [00:51<00:57,  1.71it/s]Processing 0084.jpg ...\n",
            " 46%|███████████████████▌                      | 85/183 [00:51<00:56,  1.73it/s]Processing 0085.jpg ...\n",
            " 47%|███████████████████▋                      | 86/183 [00:52<00:55,  1.73it/s]Processing 0086.jpg ...\n",
            " 48%|███████████████████▉                      | 87/183 [00:52<00:57,  1.68it/s]Processing 0087.jpg ...\n",
            " 48%|████████████████████▏                     | 88/183 [00:53<00:56,  1.70it/s]Processing 0088.jpg ...\n",
            " 49%|████████████████████▍                     | 89/183 [00:54<00:55,  1.69it/s]Processing 0089.jpg ...\n",
            " 49%|████████████████████▋                     | 90/183 [00:54<00:54,  1.69it/s]Processing 0090.jpg ...\n",
            " 50%|████████████████████▉                     | 91/183 [00:55<00:53,  1.72it/s]Processing 0091.jpg ...\n",
            " 50%|█████████████████████                     | 92/183 [00:55<00:52,  1.72it/s]Processing 0092.jpg ...\n",
            " 51%|█████████████████████▎                    | 93/183 [00:56<00:53,  1.70it/s]Processing 0093.jpg ...\n",
            " 51%|█████████████████████▌                    | 94/183 [00:57<00:51,  1.72it/s]Processing 0094.jpg ...\n",
            " 52%|█████████████████████▊                    | 95/183 [00:57<00:51,  1.72it/s]Processing 0095.jpg ...\n",
            " 52%|██████████████████████                    | 96/183 [00:58<00:50,  1.73it/s]Processing 0096.jpg ...\n",
            " 53%|██████████████████████▎                   | 97/183 [00:58<00:49,  1.73it/s]Processing 0097.jpg ...\n",
            " 54%|██████████████████████▍                   | 98/183 [00:59<00:48,  1.74it/s]Processing 0098.jpg ...\n",
            " 54%|██████████████████████▋                   | 99/183 [00:59<00:47,  1.76it/s]Processing 0099.jpg ...\n",
            " 55%|██████████████████████▍                  | 100/183 [01:00<00:47,  1.76it/s]Processing 0100.jpg ...\n",
            " 55%|██████████████████████▋                  | 101/183 [01:01<00:46,  1.75it/s]Processing 0101.jpg ...\n",
            " 56%|██████████████████████▊                  | 102/183 [01:01<00:46,  1.75it/s]Processing 0102.jpg ...\n",
            " 56%|███████████████████████                  | 103/183 [01:02<00:45,  1.75it/s]Processing 0103.jpg ...\n",
            " 57%|███████████████████████▎                 | 104/183 [01:02<00:45,  1.75it/s]Processing 0104.jpg ...\n",
            " 57%|███████████████████████▌                 | 105/183 [01:03<00:45,  1.72it/s]Processing 0105.jpg ...\n",
            " 58%|███████████████████████▋                 | 106/183 [01:03<00:44,  1.73it/s]Processing 0106.jpg ...\n",
            " 58%|███████████████████████▉                 | 107/183 [01:04<00:43,  1.74it/s]Processing 0107.jpg ...\n",
            " 59%|████████████████████████▏                | 108/183 [01:05<00:43,  1.72it/s]Processing 0108.jpg ...\n",
            " 60%|████████████████████████▍                | 109/183 [01:05<00:42,  1.73it/s]Processing 0109.jpg ...\n",
            " 60%|████████████████████████▋                | 110/183 [01:06<00:41,  1.74it/s]Processing 0110.jpg ...\n",
            " 61%|████████████████████████▊                | 111/183 [01:06<00:41,  1.73it/s]Processing 0111.jpg ...\n",
            " 61%|█████████████████████████                | 112/183 [01:07<00:41,  1.72it/s]Processing 0112.jpg ...\n",
            " 62%|█████████████████████████▎               | 113/183 [01:07<00:40,  1.73it/s]Processing 0113.jpg ...\n",
            " 62%|█████████████████████████▌               | 114/183 [01:08<00:39,  1.74it/s]Processing 0114.jpg ...\n",
            " 63%|█████████████████████████▊               | 115/183 [01:09<00:39,  1.74it/s]Processing 0115.jpg ...\n",
            " 63%|█████████████████████████▉               | 116/183 [01:09<00:38,  1.74it/s]Processing 0116.jpg ...\n",
            " 64%|██████████████████████████▏              | 117/183 [01:10<00:38,  1.73it/s]Processing 0117.jpg ...\n",
            " 64%|██████████████████████████▍              | 118/183 [01:10<00:37,  1.73it/s]Processing 0118.jpg ...\n",
            " 65%|██████████████████████████▋              | 119/183 [01:11<00:36,  1.73it/s]Processing 0119.jpg ...\n",
            " 66%|██████████████████████████▉              | 120/183 [01:12<00:36,  1.71it/s]Processing 0120.jpg ...\n",
            " 66%|███████████████████████████              | 121/183 [01:12<00:35,  1.73it/s]Processing 0121.jpg ...\n",
            " 67%|███████████████████████████▎             | 122/183 [01:13<00:35,  1.74it/s]Processing 0122.jpg ...\n",
            " 67%|███████████████████████████▌             | 123/183 [01:13<00:34,  1.75it/s]Processing 0123.jpg ...\n",
            " 68%|███████████████████████████▊             | 124/183 [01:14<00:34,  1.73it/s]Processing 0124.jpg ...\n",
            " 68%|████████████████████████████             | 125/183 [01:14<00:33,  1.74it/s]Processing 0125.jpg ...\n",
            " 69%|████████████████████████████▏            | 126/183 [01:15<00:32,  1.75it/s]Processing 0126.jpg ...\n",
            " 69%|████████████████████████████▍            | 127/183 [01:16<00:32,  1.73it/s]Processing 0127.jpg ...\n",
            " 70%|████████████████████████████▋            | 128/183 [01:16<00:31,  1.74it/s]Processing 0128.jpg ...\n",
            " 70%|████████████████████████████▉            | 129/183 [01:17<00:31,  1.74it/s]Processing 0129.jpg ...\n",
            " 71%|█████████████████████████████▏           | 130/183 [01:17<00:30,  1.75it/s]Processing 0130.jpg ...\n",
            " 72%|█████████████████████████████▎           | 131/183 [01:18<00:30,  1.73it/s]Processing 0131.jpg ...\n",
            " 72%|█████████████████████████████▌           | 132/183 [01:18<00:29,  1.74it/s]Processing 0132.jpg ...\n",
            " 73%|█████████████████████████████▊           | 133/183 [01:19<00:28,  1.74it/s]Processing 0133.jpg ...\n",
            " 73%|██████████████████████████████           | 134/183 [01:20<00:28,  1.74it/s]Processing 0134.jpg ...\n",
            " 74%|██████████████████████████████▏          | 135/183 [01:20<00:27,  1.73it/s]Processing 0135.jpg ...\n",
            " 74%|██████████████████████████████▍          | 136/183 [01:21<00:27,  1.74it/s]Processing 0136.jpg ...\n",
            " 75%|██████████████████████████████▋          | 137/183 [01:21<00:26,  1.75it/s]Processing 0137.jpg ...\n",
            " 75%|██████████████████████████████▉          | 138/183 [01:22<00:25,  1.76it/s]Processing 0138.jpg ...\n",
            " 76%|███████████████████████████████▏         | 139/183 [01:22<00:24,  1.76it/s]Processing 0139.jpg ...\n",
            " 77%|███████████████████████████████▎         | 140/183 [01:23<00:24,  1.74it/s]Processing 0140.jpg ...\n",
            " 77%|███████████████████████████████▌         | 141/183 [01:24<00:23,  1.76it/s]Processing 0141.jpg ...\n",
            " 78%|███████████████████████████████▊         | 142/183 [01:24<00:23,  1.77it/s]Processing 0142.jpg ...\n",
            " 78%|████████████████████████████████         | 143/183 [01:25<00:22,  1.79it/s]Processing 0143.jpg ...\n",
            " 79%|████████████████████████████████▎        | 144/183 [01:25<00:22,  1.76it/s]Processing 0144.jpg ...\n",
            " 79%|████████████████████████████████▍        | 145/183 [01:26<00:21,  1.75it/s]Processing 0145.jpg ...\n",
            " 80%|████████████████████████████████▋        | 146/183 [01:26<00:21,  1.72it/s]Processing 0146.jpg ...\n",
            " 80%|████████████████████████████████▉        | 147/183 [01:27<00:20,  1.74it/s]Processing 0147.jpg ...\n",
            " 81%|█████████████████████████████████▏       | 148/183 [01:28<00:20,  1.74it/s]Processing 0148.jpg ...\n",
            " 81%|█████████████████████████████████▍       | 149/183 [01:28<00:19,  1.72it/s]Processing 0149.jpg ...\n",
            " 82%|█████████████████████████████████▌       | 150/183 [01:29<00:19,  1.71it/s]Processing 0150.jpg ...\n",
            " 83%|█████████████████████████████████▊       | 151/183 [01:29<00:18,  1.70it/s]Processing 0151.jpg ...\n",
            " 83%|██████████████████████████████████       | 152/183 [01:30<00:18,  1.70it/s]Processing 0152.jpg ...\n",
            " 84%|██████████████████████████████████▎      | 153/183 [01:31<00:17,  1.68it/s]Processing 0153.jpg ...\n",
            " 84%|██████████████████████████████████▌      | 154/183 [01:31<00:16,  1.71it/s]Processing 0154.jpg ...\n",
            " 85%|██████████████████████████████████▋      | 155/183 [01:32<00:16,  1.73it/s]Processing 0155.jpg ...\n",
            " 85%|██████████████████████████████████▉      | 156/183 [01:32<00:15,  1.75it/s]Processing 0156.jpg ...\n",
            " 86%|███████████████████████████████████▏     | 157/183 [01:33<00:14,  1.74it/s]Processing 0157.jpg ...\n",
            " 86%|███████████████████████████████████▍     | 158/183 [01:33<00:14,  1.76it/s]Processing 0158.jpg ...\n",
            " 87%|███████████████████████████████████▌     | 159/183 [01:34<00:13,  1.73it/s]Processing 0159.jpg ...\n",
            " 87%|███████████████████████████████████▊     | 160/183 [01:35<00:13,  1.73it/s]Processing 0160.jpg ...\n",
            " 88%|████████████████████████████████████     | 161/183 [01:35<00:12,  1.72it/s]Processing 0161.jpg ...\n",
            " 89%|████████████████████████████████████▎    | 162/183 [01:36<00:12,  1.72it/s]Processing 0162.jpg ...\n",
            " 89%|████████████████████████████████████▌    | 163/183 [01:36<00:11,  1.73it/s]Processing 0163.jpg ...\n",
            " 90%|████████████████████████████████████▋    | 164/183 [01:37<00:11,  1.71it/s]Processing 0164.jpg ...\n",
            " 90%|████████████████████████████████████▉    | 165/183 [01:37<00:10,  1.72it/s]Processing 0165.jpg ...\n",
            " 91%|█████████████████████████████████████▏   | 166/183 [01:38<00:09,  1.74it/s]Processing 0166.jpg ...\n",
            " 91%|█████████████████████████████████████▍   | 167/183 [01:39<00:09,  1.75it/s]Processing 0167.jpg ...\n",
            " 92%|█████████████████████████████████████▋   | 168/183 [01:39<00:08,  1.77it/s]Processing 0168.jpg ...\n",
            " 92%|█████████████████████████████████████▊   | 169/183 [01:40<00:07,  1.79it/s]Processing 0169.jpg ...\n",
            " 93%|██████████████████████████████████████   | 170/183 [01:40<00:07,  1.78it/s]Processing 0170.jpg ...\n",
            " 93%|██████████████████████████████████████▎  | 171/183 [01:41<00:06,  1.77it/s]Processing 0171.jpg ...\n",
            " 94%|██████████████████████████████████████▌  | 172/183 [01:41<00:06,  1.74it/s]Processing 0172.jpg ...\n",
            " 95%|██████████████████████████████████████▊  | 173/183 [01:42<00:05,  1.74it/s]Processing 0173.jpg ...\n",
            " 95%|██████████████████████████████████████▉  | 174/183 [01:43<00:05,  1.75it/s]Processing 0174.jpg ...\n",
            " 96%|███████████████████████████████████████▏ | 175/183 [01:43<00:04,  1.73it/s]Processing 0175.jpg ...\n",
            " 96%|███████████████████████████████████████▍ | 176/183 [01:44<00:04,  1.70it/s]Processing 0176.jpg ...\n",
            " 97%|███████████████████████████████████████▋ | 177/183 [01:44<00:03,  1.72it/s]Processing 0177.jpg ...\n",
            " 97%|███████████████████████████████████████▉ | 178/183 [01:45<00:02,  1.73it/s]Processing 0178.jpg ...\n",
            " 98%|████████████████████████████████████████ | 179/183 [01:45<00:02,  1.72it/s]Processing 0179.jpg ...\n",
            " 98%|████████████████████████████████████████▎| 180/183 [01:46<00:01,  1.71it/s]Processing 0180.jpg ...\n",
            " 99%|████████████████████████████████████████▌| 181/183 [01:47<00:01,  1.70it/s]Processing 0181.jpg ...\n",
            " 99%|████████████████████████████████████████▊| 182/183 [01:47<00:00,  1.71it/s]Processing 0182.jpg ...\n",
            "100%|█████████████████████████████████████████| 183/183 [01:48<00:00,  1.69it/s]\n",
            "Results are in the [Output/test] folder.\n"
          ]
        }
      ],
      "source": [
        "!python Wav2Lip/GFPGAN-master/inference_gfpgan.py -i $unProcessedFramesFolderPath -o $outputPath -v 1.3 -s 2 --only_center_face --bg_upsampler None -device 'mps'"
      ]
    },
    {
      "cell_type": "code",
      "execution_count": 113,
      "metadata": {
        "id": "XibzGPIVJfvP"
      },
      "outputs": [
        {
          "name": "stderr",
          "output_type": "stream",
          "text": [
            "  0%|          | 0/2 [00:00<?, ?it/s]"
          ]
        },
        {
          "name": "stdout",
          "output_type": "stream",
          "text": [
            "processing  0 100\n"
          ]
        },
        {
          "name": "stderr",
          "output_type": "stream",
          "text": [
            "100%|██████████| 100/100 [00:00<00:00, 134.23it/s]\n",
            " 50%|█████     | 1/2 [00:01<00:01,  1.91s/it]"
          ]
        },
        {
          "name": "stdout",
          "output_type": "stream",
          "text": [
            "processing  100 200\n"
          ]
        },
        {
          "name": "stderr",
          "output_type": "stream",
          "text": [
            "100%|██████████| 83/83 [00:00<00:00, 144.51it/s]\n",
            "100%|██████████| 2/2 [00:03<00:00,  1.72s/it]\n"
          ]
        }
      ],
      "source": [
        "# This scrpit is used to generate the video from the enhanced frames\n",
        "import os\n",
        "restoredFramesPath = outputPath + '/restored_imgs/'\n",
        "processedVideoOutputPath = outputPath\n",
        "\n",
        "dir_list = os.listdir(restoredFramesPath)\n",
        "dir_list.sort()\n",
        "\n",
        "import cv2\n",
        "\n",
        "batch = 0\n",
        "batchSize = 100\n",
        "from tqdm import tqdm\n",
        "for i in tqdm(range(0, len(dir_list), batchSize)):\n",
        "  img_array = []\n",
        "  start, end = i, i+batchSize\n",
        "  print(\"processing \", start, end)\n",
        "  for filename in  tqdm(dir_list[start:end]):\n",
        "      filename = restoredFramesPath+filename;\n",
        "      img = cv2.imread(filename)\n",
        "      if img is None:\n",
        "        continue\n",
        "      height, width, layers = img.shape\n",
        "      size = (width,height)\n",
        "      img_array.append(img)\n",
        "\n",
        "\n",
        "  out = cv2.VideoWriter(processedVideoOutputPath+'/batch_'+str(batch).zfill(4)+'.mp4',cv2.VideoWriter_fourcc(*'mp4v'), 25, size)\n",
        "  batch = batch + 1\n",
        " \n",
        "  for i in range(len(img_array)):\n",
        "    out.write(img_array[i])\n",
        "  out.release()"
      ]
    },
    {
      "cell_type": "code",
      "execution_count": null,
      "metadata": {},
      "outputs": [],
      "source": [
        "# Concatenate the batch videos into a single video using ffmpeg library.\n",
        "concatTextFilePath = outputPath + \"/concat.txt\"\n",
        "concatTextFile=open(concatTextFilePath,\"w\")\n",
        "for ips in range(batch):\n",
        "  concatTextFile.write(\"file batch_\" + str(ips).zfill(4) + \".mp4\\n\")\n",
        "concatTextFile.close()\n",
        "\n",
        "concatedVideoOutputPath = outputPath + \"/concated_output.mp4\"\n",
        "import_videos_command =[\"ffmpeg\", \"-y\", \"-f\", \"concat\", \n",
        "          \"-i\", concatTextFilePath, \"-c\", \n",
        "          \"copy\", concatedVideoOutputPath \n",
        "        ]\n",
        "\n",
        "finalProcessedOuputVideo = processedVideoOutputPath+'/final_with_audio.mp4'\n",
        "concat_video_command =[\"ffmpeg\", \"-y\", \"-i\", concatedVideoOutputPath,\n",
        "                       \"-i\", inputAudioPath, \"-map\", \"0\", \"-map\", \"1:a\", \n",
        "                       \"-c:v\", \"copy\", \"-shortest\",finalProcessedOuputVideo\n",
        "                      ]\n",
        "\n",
        "import subprocess\n",
        "subprocess.run(import_videos_command)\n",
        "subprocess.run(concat_video_command)"
      ]
    },
    {
      "cell_type": "code",
      "execution_count": 114,
      "metadata": {
        "id": "jtde28qwpDd6"
      },
      "outputs": [
        {
          "name": "stdout",
          "output_type": "stream",
          "text": [
            "ffmpeg version 6.0 Copyright (c) 2000-2023 the FFmpeg developers\n",
            "  built with Apple clang version 15.0.0 (clang-1500.0.40.1)\n",
            "  configuration: --prefix=/opt/homebrew/Cellar/ffmpeg/6.0_1 --enable-shared --enable-pthreads --enable-version3 --cc=clang --host-cflags= --host-ldflags='-Wl,-ld_classic' --enable-ffplay --enable-gnutls --enable-gpl --enable-libaom --enable-libaribb24 --enable-libbluray --enable-libdav1d --enable-libjxl --enable-libmp3lame --enable-libopus --enable-librav1e --enable-librist --enable-librubberband --enable-libsnappy --enable-libsrt --enable-libsvtav1 --enable-libtesseract --enable-libtheora --enable-libvidstab --enable-libvmaf --enable-libvorbis --enable-libvpx --enable-libwebp --enable-libx264 --enable-libx265 --enable-libxml2 --enable-libxvid --enable-lzma --enable-libfontconfig --enable-libfreetype --enable-frei0r --enable-libass --enable-libopencore-amrnb --enable-libopencore-amrwb --enable-libopenjpeg --enable-libspeex --enable-libsoxr --enable-libzmq --enable-libzimg --disable-libjack --disable-indev=jack --enable-videotoolbox --enable-audiotoolbox --enable-neon\n",
            "  libavutil      58.  2.100 / 58.  2.100\n",
            "  libavcodec     60.  3.100 / 60.  3.100\n",
            "  libavformat    60.  3.100 / 60.  3.100\n",
            "  libavdevice    60.  1.100 / 60.  1.100\n",
            "  libavfilter     9.  3.100 /  9.  3.100\n",
            "  libswscale      7.  1.100 /  7.  1.100\n",
            "  libswresample   4. 10.100 /  4. 10.100\n",
            "  libpostproc    57.  1.100 / 57.  1.100\n",
            "Input #0, concat, from 'Output/test/concat.txt':\n",
            "  Duration: N/A, start: 0.000000, bitrate: 14577 kb/s\n",
            "  Stream #0:0(und): Video: mpeg4 (Simple Profile) (mp4v / 0x7634706D), yuv420p, 1080x1920 [SAR 1:1 DAR 9:16], 14577 kb/s, 25 fps, 25 tbr, 12800 tbn\n",
            "    Metadata:\n",
            "      handler_name    : VideoHandler\n",
            "      vendor_id       : [0][0][0][0]\n",
            "Output #0, mp4, to 'Output/test/concated_output.mp4':\n",
            "  Metadata:\n",
            "    encoder         : Lavf60.3.100\n",
            "  Stream #0:0(und): Video: mpeg4 (Simple Profile) (mp4v / 0x7634706D), yuv420p, 1080x1920 [SAR 1:1 DAR 9:16], q=2-31, 14577 kb/s, 25 fps, 25 tbr, 12800 tbn\n",
            "    Metadata:\n",
            "      handler_name    : VideoHandler\n",
            "      vendor_id       : [0][0][0][0]\n",
            "Stream mapping:\n",
            "  Stream #0:0 -> #0:0 (copy)\n",
            "Press [q] to stop, [?] for help\n",
            "frame=  183 fps=0.0 q=-1.0 Lsize=   12847kB time=00:00:07.28 bitrate=14456.8kbits/s speed= 901x    \n",
            "video:12846kB audio:0kB subtitle:0kB other streams:0kB global headers:0kB muxing overhead: 0.014224%\n",
            "ffmpeg version 6.0 Copyright (c) 2000-2023 the FFmpeg developers\n",
            "  built with Apple clang version 15.0.0 (clang-1500.0.40.1)\n",
            "  configuration: --prefix=/opt/homebrew/Cellar/ffmpeg/6.0_1 --enable-shared --enable-pthreads --enable-version3 --cc=clang --host-cflags= --host-ldflags='-Wl,-ld_classic' --enable-ffplay --enable-gnutls --enable-gpl --enable-libaom --enable-libaribb24 --enable-libbluray --enable-libdav1d --enable-libjxl --enable-libmp3lame --enable-libopus --enable-librav1e --enable-librist --enable-librubberband --enable-libsnappy --enable-libsrt --enable-libsvtav1 --enable-libtesseract --enable-libtheora --enable-libvidstab --enable-libvmaf --enable-libvorbis --enable-libvpx --enable-libwebp --enable-libx264 --enable-libx265 --enable-libxml2 --enable-libxvid --enable-lzma --enable-libfontconfig --enable-libfreetype --enable-frei0r --enable-libass --enable-libopencore-amrnb --enable-libopencore-amrwb --enable-libopenjpeg --enable-libspeex --enable-libsoxr --enable-libzmq --enable-libzimg --disable-libjack --disable-indev=jack --enable-videotoolbox --enable-audiotoolbox --enable-neon\n",
            "  libavutil      58.  2.100 / 58.  2.100\n",
            "  libavcodec     60.  3.100 / 60.  3.100\n",
            "  libavformat    60.  3.100 / 60.  3.100\n",
            "  libavdevice    60.  1.100 / 60.  1.100\n",
            "  libavfilter     9.  3.100 /  9.  3.100\n",
            "  libswscale      7.  1.100 /  7.  1.100\n",
            "  libswresample   4. 10.100 /  4. 10.100\n",
            "  libpostproc    57.  1.100 / 57.  1.100\n",
            "Input #0, mov,mp4,m4a,3gp,3g2,mj2, from 'Output/test/concated_output.mp4':\n",
            "  Metadata:\n",
            "    major_brand     : isom\n",
            "    minor_version   : 512\n",
            "    compatible_brands: isomiso2mp41\n",
            "    encoder         : Lavf60.3.100\n",
            "  Duration: 00:00:07.32, start: 0.000000, bitrate: 14377 kb/s\n",
            "  Stream #0:0[0x1](und): Video: mpeg4 (Simple Profile) (mp4v / 0x7634706D), yuv420p, 1080x1920 [SAR 1:1 DAR 9:16], 14375 kb/s, 25 fps, 25 tbr, 12800 tbn (default)\n",
            "    Metadata:\n",
            "      handler_name    : VideoHandler\n",
            "      vendor_id       : [0][0][0][0]\n",
            "Input #1, mp3, from '/Users/shawn/Documents/FinalYr_Proj/VideoChatbot_Stripped/Wav2Lip/inputs/kim_audio.mp3':\n",
            "  Metadata:\n",
            "    comment         : audio-extractor.net\n",
            "  Duration: 00:00:07.44, start: 0.025057, bitrate: 132 kb/s\n",
            "  Stream #1:0: Audio: mp3, 44100 Hz, stereo, fltp, 128 kb/s\n",
            "    Metadata:\n",
            "      encoder         : Lavc59.18\n",
            "Stream mapping:\n",
            "  Stream #0:0 -> #0:0 (copy)\n",
            "  Stream #1:0 -> #0:1 (mp3 (mp3float) -> aac (native))\n",
            "Press [q] to stop, [?] for help\n",
            "Output #0, mp4, to 'Output/test/final_with_audio.mp4':\n",
            "  Metadata:\n",
            "    major_brand     : isom\n",
            "    minor_version   : 512\n",
            "    compatible_brands: isomiso2mp41\n",
            "    encoder         : Lavf60.3.100\n",
            "  Stream #0:0(und): Video: mpeg4 (Simple Profile) (mp4v / 0x7634706D), yuv420p, 1080x1920 [SAR 1:1 DAR 9:16], q=2-31, 14375 kb/s, 25 fps, 25 tbr, 12800 tbn (default)\n",
            "    Metadata:\n",
            "      handler_name    : VideoHandler\n",
            "      vendor_id       : [0][0][0][0]\n",
            "  Stream #0:1: Audio: aac (LC) (mp4a / 0x6134706D), 44100 Hz, stereo, fltp, 128 kb/s\n",
            "    Metadata:\n",
            "      encoder         : Lavc60.3.100 aac\n",
            "frame=  183 fps=0.0 q=-1.0 Lsize=   12965kB time=00:00:07.38 bitrate=14384.1kbits/s speed=41.7x     \n",
            "video:12846kB audio:114kB subtitle:0kB other streams:0kB global headers:0kB muxing overhead: 0.046691%\n",
            "\u001b[1;36m[aac @ 0x124f14400] \u001b[0mQavg: 712.528\n"
          ]
        }
      ],
      "source": [
        "# Concatenate the batch videos into a single video using ffmpeg library.\n",
        "concatTextFilePath = outputPath + \"/concat.txt\"\n",
        "concatTextFile=open(concatTextFilePath,\"w\")\n",
        "for ips in range(batch):\n",
        "  concatTextFile.write(\"file batch_\" + str(ips).zfill(4) + \".mp4\\n\")\n",
        "concatTextFile.close()\n",
        "\n",
        "concatedVideoOutputPath = outputPath + \"/concated_output.mp4\"\n",
        "!ffmpeg -y -f concat -i {concatTextFilePath} -c copy {concatedVideoOutputPath} \n",
        "\n",
        "finalProcessedOuputVideo = processedVideoOutputPath+'/final_with_audio.mp4'\n",
        "!ffmpeg -y -i {concatedVideoOutputPath} -i {inputAudioPath} -map 0 -map 1:a -c:v copy -shortest {finalProcessedOuputVideo}"
      ]
    }
  ],
  "metadata": {
    "accelerator": "GPU",
    "colab": {
      "collapsed_sections": [],
      "name": "Wav2Lip.ipynb",
      "provenance": []
    },
    "gpuClass": "standard",
    "kernelspec": {
      "display_name": "Python 3",
      "name": "python3"
    },
    "language_info": {
      "codemirror_mode": {
        "name": "ipython",
        "version": 3
      },
      "file_extension": ".py",
      "mimetype": "text/x-python",
      "name": "python",
      "nbconvert_exporter": "python",
      "pygments_lexer": "ipython3",
      "version": "3.10.0"
    }
  },
  "nbformat": 4,
  "nbformat_minor": 0
}
